<svg xmlns="http://www.w3.org/2000/svg" width="1024" height="1024" viewBox="0 0 1024 1024"><g transform="translate(-7295 -6204)"><rect width="1024" height="1024" transform="translate(7295 6204)" fill="none"/><g transform="translate(7503.028 6284.784)"><path d="M123.357,481.195A124.271,124.271,0,0,1,98.5,478.689a122.681,122.681,0,0,1-44.109-18.561A123.716,123.716,0,0,1,9.694,405.854,122.739,122.739,0,0,1,2.506,382.7,124.27,124.27,0,0,1,0,357.838V123.357A124.27,124.27,0,0,1,2.506,98.5,122.682,122.682,0,0,1,21.067,54.387,123.717,123.717,0,0,1,75.341,9.694,122.741,122.741,0,0,1,98.5,2.506a124.561,124.561,0,0,1,49.721,0,122.679,122.679,0,0,1,44.109,18.561,123.716,123.716,0,0,1,44.693,54.273A122.741,122.741,0,0,1,244.206,98.5a124.271,124.271,0,0,1,2.506,24.861V357.838a124.27,124.27,0,0,1-2.506,24.861,122.683,122.683,0,0,1-18.561,44.109A123.717,123.717,0,0,1,171.372,471.5a122.737,122.737,0,0,1-23.155,7.188A124.267,124.267,0,0,1,123.357,481.195Zm0-417.049a61.678,61.678,0,1,0,61.678,61.679A61.748,61.748,0,0,0,123.357,64.146Z" transform="translate(181.1 381.238)" fill="#fff"/><g transform="translate(0 0)"><path d="M708.511,127.4C628.961,45.246,523.183,0,410.631,0S192.3,45.246,112.792,127.446a21.7,21.7,0,1,0,31.179,30.18c71.3-73.645,166.005-114.2,266.66-114.2s195.36,40.556,266.66,114.2a21.726,21.726,0,0,0,31.22-30.222Z" transform="translate(-106.661 0)" fill="#fff"/><path d="M365.283,64.064c-78.943,0-153.066,31.613-208.733,89.147a21.712,21.712,0,1,0,31.222,30.18c47.375-48.938,110.425-75.9,177.514-75.9s130.138,26.966,177.513,75.9a21.466,21.466,0,0,0,15.59,6.6,21.734,21.734,0,0,0,15.632-36.823C518.349,95.677,444.226,64.064,365.283,64.064Z" transform="translate(-61.313 66.335)" fill="#fff"/><path d="M231.566,208.48c47.245-48.851,129.487-48.851,176.732,0a21.727,21.727,0,0,0,31.222-30.222c-63.7-65.916-175.472-65.916-239.174,0a21.726,21.726,0,1,0,31.219,30.222Z" transform="translate(-15.964 133.388)" fill="#fff"/></g></g></g></svg>